<?xml version="1.0" encoding="UTF-8"?>
<svg version="1.1" xmlns="http://www.w3.org/2000/svg" width="491" height="487">
<path d="M0 0 C162.03 0 324.06 0 491 0 C491 160.71 491 321.42 491 487 C328.97 487 166.94 487 0 487 C0 326.29 0 165.58 0 0 Z " fill="#1876F6" transform="translate(0,0)"/>
<path d="M0 0 C0.70298721 -0.00014603 1.40597443 -0.00029205 2.13026428 -0.0004425 C4.44063463 0.00025098 6.75092313 0.00801682 9.0612793 0.01586914 C10.66839046 0.01773533 12.2755022 0.01915828 13.88261414 0.02015686 C18.10268742 0.02396624 22.32272602 0.033783 26.54278564 0.04486084 C31.61143528 0.05691229 36.68009653 0.06148472 41.74875641 0.06731415 C49.44019437 0.07699563 57.13155632 0.09616322 64.82299805 0.11352539 C64.82299805 20.57352539 64.82299805 41.03352539 64.82299805 62.11352539 C42.26049805 62.42602539 42.26049805 62.42602539 35.17626953 62.50146484 C33.30719026 62.53377343 31.438129 62.56714978 29.5690918 62.60180664 C28.61168091 62.60805054 27.65427002 62.61429443 26.66784668 62.62072754 C18.85484061 62.78769374 12.47707649 64.31065541 6.82299805 70.11352539 C1.75394228 77.72338211 1.08563603 84.58767005 1.1159668 93.55883789 C1.09403259 95.22450806 1.09403259 95.22450806 1.07165527 96.92382812 C1.02467652 101.028509 1.02001349 105.13358671 1.01049805 109.23852539 C0.94862305 118.43727539 0.88674805 127.63602539 0.82299805 137.11352539 C21.61299805 137.11352539 42.40299805 137.11352539 63.82299805 137.11352539 C63.22754658 145.44984599 62.63326505 153.65757508 61.57299805 161.92602539 C61.3877356 163.39458984 61.3877356 163.39458984 61.19873047 164.89282227 C59.33117075 179.33617184 57.04181261 193.72121472 54.82299805 208.11352539 C37.33299805 208.11352539 19.84299805 208.11352539 1.82299805 208.11352539 C1.82299805 262.89352539 1.82299805 317.67352539 1.82299805 374.11352539 C-21.93700195 374.11352539 -45.69700195 374.11352539 -70.17700195 374.11352539 C-70.17700195 319.33352539 -70.17700195 264.55352539 -70.17700195 208.11352539 C-89.64700195 208.11352539 -109.11700195 208.11352539 -129.17700195 208.11352539 C-129.17700195 184.35352539 -129.17700195 160.59352539 -129.17700195 136.11352539 C-109.70700195 136.11352539 -90.23700195 136.11352539 -70.17700195 136.11352539 C-70.2234082 131.19704102 -70.26981445 126.28055664 -70.31762695 121.21508789 C-70.33811524 118.06142035 -70.35737426 114.90783729 -70.37231445 111.75415039 C-70.39603412 106.77122515 -70.42379132 101.78859956 -70.47875977 96.8059082 C-70.76899164 69.75986689 -70.54568379 44.1558122 -51.71606445 22.64086914 C-40.51486691 11.49136943 -27.74953325 4.25515362 -12.17700195 1.11352539 C-11.44451736 0.93966812 -10.71203278 0.76581085 -9.95735168 0.58668518 C-6.59704394 0.01482816 -3.40960085 -0.00597128 0 0 Z " fill="#FCFEFE" transform="translate(277.177001953125,112.886474609375)"/>
<path d="M0 0 C69.63 0 139.26 0 211 0 C211 72.93 211 145.86 211 221 C210.67 221 210.34 221 210 221 C209.90203125 220.07703125 209.8040625 219.1540625 209.703125 218.203125 C203.61537301 165.09273699 181.59373312 115.83632961 144.73046875 77.0390625 C143 75 143 75 143 73 C142.34 73 141.68 73 141 73 C140.46375 72.319375 139.9275 71.63875 139.375 70.9375 C136.28854769 67.12004582 132.73790912 64.16559767 129 61 C128.03707031 60.16082031 127.07414062 59.32164063 126.08203125 58.45703125 C118.39069547 51.78515857 110.43071663 45.70561518 102 40 C101.32291992 39.53480957 100.64583984 39.06961914 99.94824219 38.59033203 C70.65456459 18.61858327 35.23889405 5.34862948 0 1 C0 0.67 0 0.34 0 0 Z " fill="#FEFCF4" transform="translate(280,0)"/>
<path d="M0 0 C68.97 0 137.94 0 209 0 C209 0.33 209 0.66 209 1 C208.33170166 1.12528076 207.66340332 1.25056152 206.97485352 1.37963867 C179.86129694 6.50835037 154.41314983 13.87427292 130 27 C128.88383301 27.59216309 128.88383301 27.59216309 127.74511719 28.19628906 C118.32429401 33.21053494 109.45739017 38.45482703 101 45 C100.01644531 45.71929687 99.03289062 46.43859375 98.01953125 47.1796875 C91.99808849 51.59083314 86.3830019 56.21511956 80.9609375 61.34765625 C79 63 79 63 77 63 C77 63.66 77 64.32 77 65 C75.56640625 66.375 75.56640625 66.375 73.5625 68 C68.55628241 72.26716262 64.29007938 77.02465004 60 82 C59.19433594 82.92941406 58.38867188 83.85882813 57.55859375 84.81640625 C47.91413047 96.15129188 39.55124605 108.1732259 32 121 C31.6405127 121.60005859 31.28102539 122.20011719 30.91064453 122.81835938 C15.13881745 149.2301826 5.22233599 179.5613689 1 210 C0.67 210 0.34 210 0 210 C0 140.7 0 71.4 0 0 Z " fill="#FEFCF4" transform="translate(0,0)"/>
<path d="M0 0 C0.33 0 0.66 0 1 0 C1 71.61 1 143.22 1 217 C-63.68 217 -128.36 217 -195 217 C-195 216.67 -195 216.34 -195 216 C-194.01644531 215.79246094 -193.03289062 215.58492187 -192.01953125 215.37109375 C-130.09092033 201.82468363 -73.75600258 163.79599024 -39.25 110.375 C-38.15253634 108.59195371 -37.069694 106.79984313 -36 105 C-35.36707031 103.93652344 -34.73414063 102.87304688 -34.08203125 101.77734375 C-15.83188705 70.6792402 -3.12236108 36.10524787 0 0 Z " fill="#FDFCF4" transform="translate(490,270)"/>
<path d="M0 0 C0.33 0 0.66 0 1 0 C1.07476562 0.8765625 1.14953125 1.753125 1.2265625 2.65625 C6.29141827 51.51721159 30.18232143 100.8106646 64.30566406 135.97827148 C66.57203701 138.3302337 67.95092506 139.85277517 69 143 C69.66 143 70.32 143 71 143 C72.70876662 144.62347534 74.36754099 146.29981379 76 148 C106.81516861 178.32462323 151.72656394 204.16209969 195 210 C195 210.33 195 210.66 195 211 C130.65 211 66.3 211 0 211 C0 141.37 0 71.74 0 0 Z " fill="#FDFCF4" transform="translate(0,276)"/>
<path d="M0 0 C1.31672715 3.95018146 0.34516511 5.86168953 -0.875 9.8125 C-2.99816044 16.73875415 -4.11498007 22.94554253 -4.20532227 30.19873047 C-4.21522186 30.89211014 -4.22512146 31.58548981 -4.23532104 32.29988098 C-4.26669326 34.57228277 -4.29159647 36.84470541 -4.31640625 39.1171875 C-4.3369968 40.70045488 -4.3579938 42.28371703 -4.37937927 43.86697388 C-4.43438309 48.01956929 -4.48388735 52.17221251 -4.53222656 56.32489014 C-4.59146862 61.31519766 -4.65757642 66.30541843 -4.72252655 71.2956543 C-4.82026289 78.86371623 -4.90930553 86.43183565 -5 94 C-24.47 94 -43.94 94 -64 94 C-64 117.76 -64 141.52 -64 166 C-44.53 166 -25.06 166 -5 166 C-5 220.78 -5 275.56 -5 332 C-5.33 332 -5.66 332 -6 332 C-6 277.55 -6 223.1 -6 167 C-25.8 167 -45.6 167 -66 167 C-66.61400354 161.47396813 -67.12438616 156.5662405 -67.11352539 151.10327148 C-67.11344986 149.82262314 -67.11337433 148.54197479 -67.11329651 147.22251892 C-67.10819226 145.85537679 -67.10297631 144.48823506 -67.09765625 143.12109375 C-67.09578745 141.69906159 -67.09436573 140.27702877 -67.09336853 138.85499573 C-67.08957971 135.14132866 -67.07978117 131.42770169 -67.06866455 127.71405029 C-67.05837158 123.912888 -67.05385414 120.11171913 -67.04882812 116.31054688 C-67.03815505 108.87367978 -67.02112318 101.43684554 -67 94 C-66.34 94 -65.68 94 -65 94 C-65 93.34 -65 92.68 -65 92 C-45.86 92 -26.72 92 -7 92 C-7.05800781 87.49085938 -7.11601562 82.98171875 -7.17578125 78.3359375 C-7.20141799 75.42834803 -7.22549296 72.52090372 -7.24414062 69.61328125 C-7.27369128 65.02785242 -7.30810067 60.44293603 -7.37719727 55.85791016 C-7.97415833 15.16916307 -7.97415833 15.16916307 0 0 Z " fill="#2B73D4" transform="translate(212,155)"/>
<path d="M0 0 C0.33 0 0.66 0 1 0 C1 18.48 1 36.96 1 56 C22.12 55.67 43.24 55.34 65 55 C65 72.09054343 65 72.09054343 63.1875 79.25 C62.81519112 80.87022085 62.44680974 82.4913484 62.08203125 84.11328125 C61.89850098 84.9223291 61.7149707 85.73137695 61.52587891 86.56494141 C59.0285213 98.12884335 57.6507412 109.8955547 56.73388672 121.67944336 C56.21215995 127.78784005 56.21215995 127.78784005 54 130 C37.17 130 20.34 130 3 130 C3 184.12 3 238.24 3 294 C2.34 294 1.68 294 1 294 C1 239.22 1 184.44 1 128 C18.49 128 35.98 128 54 128 C54.33 123.05 54.66 118.1 55 113 C55.31383814 110.45323995 55.66351934 107.90992265 56.0859375 105.37890625 C56.29476562 104.09177734 56.50359375 102.80464844 56.71875 101.47851562 C56.9353125 100.18623047 57.151875 98.89394531 57.375 97.5625 C59.6161446 84.06721262 61.30014827 70.59881381 63 57 C42.21 57 21.42 57 0 57 C0 38.19 0 19.38 0 0 Z " fill="#2370DB" transform="translate(278,193)"/>
<path d="M0 0 C1.59853436 0.0037385 3.19707103 0.00658151 4.79560852 0.00857544 C8.96632413 0.01614609 13.13689645 0.03573667 17.30755615 0.0579834 C22.33127634 0.08221838 27.35504493 0.09125414 32.37880707 0.10289001 C39.97789757 0.12216608 47.57667478 0.16053398 55.17578125 0.1953125 C55.17578125 20.6553125 55.17578125 41.1153125 55.17578125 62.1953125 C32.48828125 62.6328125 32.48828125 62.6328125 25.34887695 62.76342773 C23.47476487 62.80156534 21.60065952 62.84003572 19.7265625 62.87890625 C18.75891968 62.89538208 17.79127686 62.91185791 16.79431152 62.92883301 C15.86098999 62.94901489 14.92766846 62.96919678 13.96606445 62.98999023 C13.15998245 63.00553452 12.35390045 63.0210788 11.52339172 63.03709412 C9.00629592 63.20673505 6.63670338 63.65051701 4.17578125 64.1953125 C3.84578125 63.5353125 3.51578125 62.8753125 3.17578125 62.1953125 C8.64592891 59.90750834 13.56697725 59.93522854 19.38671875 60 C20.24563721 60.00201416 21.10455566 60.00402832 21.98950195 60.00610352 C25.17664992 60.0165126 28.36372134 60.04443496 31.55078125 60.0703125 C38.68703125 60.1115625 45.82328125 60.1528125 53.17578125 60.1953125 C52.84578125 41.3853125 52.51578125 22.5753125 52.17578125 3.1953125 C39.88086852 3.13711197 39.88086852 3.13711197 27.5859375 3.09765625 C22.56912998 3.08571451 17.55239568 3.07160807 12.53564453 3.04443359 C8.48968327 3.02265553 4.44380056 3.01073341 0.39778519 3.00555801 C-1.14353038 3.00187116 -2.6848418 2.99467166 -4.22612381 2.98385239 C-6.38993776 2.96927134 -8.55342975 2.96733729 -10.71728516 2.96826172 C-11.94750397 2.9638205 -13.17772278 2.95937927 -14.44522095 2.95480347 C-17.89614505 3.20043204 -20.58492387 4.02997986 -23.82421875 5.1953125 C-25.82381887 5.2353045 -27.82469117 5.23878049 -29.82421875 5.1953125 C-32.08988218 5.63472773 -32.08988218 5.63472773 -33.82421875 6.1953125 C-33.82421875 6.8553125 -33.82421875 7.5153125 -33.82421875 8.1953125 C-36.13421875 8.1953125 -38.44421875 8.1953125 -40.82421875 8.1953125 C-38.55342948 5.92452323 -36.88668395 5.29716485 -33.88671875 4.1953125 C-33.01144531 3.8653125 -32.13617188 3.5353125 -31.234375 3.1953125 C-20.85207091 0.15078805 -10.72129475 -0.07439504 0 0 Z " fill="#BFDEFB" transform="translate(286.82421875,112.8046875)"/>
<path d="M0 0 C0.33 0 0.66 0 1 0 C1 18.48 1 36.96 1 56 C22.12 55.67 43.24 55.34 65 55 C65 72.09054343 65 72.09054343 63.1875 79.25 C62.81519112 80.87022085 62.44680974 82.4913484 62.08203125 84.11328125 C61.89850098 84.9223291 61.7149707 85.73137695 61.52587891 86.56494141 C58.58006136 100.2054169 57.24305943 114.1216071 56 128 C55.01 127.505 55.01 127.505 54 127 C54.53257642 117.06946857 55.74151796 107.43561534 57.375 97.625 C59.61153796 84.10913172 61.29785922 70.61712626 63 57 C42.21 57 21.42 57 0 57 C0 38.19 0 19.38 0 0 Z " fill="#5C93E3" transform="translate(278,193)"/>
<path d="M0 0 C1.35094757 0.0001133 1.35094757 0.0001133 2.72918701 0.00022888 C4.1746994 0.00797081 4.1746994 0.00797081 5.64941406 0.01586914 C6.64257629 0.01728409 7.63573853 0.01869904 8.65899658 0.02015686 C11.82770818 0.02574951 14.99634885 0.03830069 18.16503906 0.05102539 C20.31477762 0.05604134 22.4645173 0.06060408 24.61425781 0.06469727 C29.88120905 0.07571653 35.14811899 0.09244739 40.41503906 0.11352539 C40.41503906 0.44352539 40.41503906 0.77352539 40.41503906 1.11352539 C39.15957275 1.12287109 37.90410645 1.1322168 36.6105957 1.1418457 C31.91932671 1.18194323 27.22869993 1.24775617 22.5378418 1.32104492 C20.51383766 1.34914039 18.48972612 1.37041134 16.46557617 1.38452148 C13.54322785 1.40610987 10.62215529 1.45284051 7.70019531 1.50415039 C6.80607437 1.50537903 5.91195343 1.50660767 4.99073792 1.50787354 C-2.55726146 1.68089611 -8.49165058 3.6926738 -14.45996094 8.36352539 C-20.02022552 15.55916191 -20.04810976 22.95591532 -20.09667969 31.70727539 C-20.11331665 32.76076172 -20.12995361 33.81424805 -20.14709473 34.8996582 C-20.20457058 38.80408119 -20.23706585 42.7088398 -20.27246094 46.61352539 C-20.37558594 55.35852539 -20.47871094 64.10352539 -20.58496094 73.11352539 C-0.45496094 73.11352539 19.67503906 73.11352539 40.41503906 73.11352539 C40.41503906 73.44352539 40.41503906 73.77352539 40.41503906 74.11352539 C19.95503906 74.11352539 -0.50496094 74.11352539 -21.58496094 74.11352539 C-21.70871094 64.56415039 -21.83246094 55.01477539 -21.95996094 45.17602539 C-22.01458496 42.17774658 -22.06920898 39.17946777 -22.12548828 36.09033203 C-22.14302473 33.69313159 -22.15831102 31.29591318 -22.17089844 28.89868164 C-22.20159424 27.67080933 -22.23229004 26.44293701 -22.26391602 25.17785645 C-22.2687337 17.22627106 -21.06835599 12.03395109 -15.58496094 6.11352539 C-10.70192115 1.73701007 -6.4824653 -0.01820917 0 0 Z " fill="#2166C9" transform="translate(300.5849609375,174.886474609375)"/>
<path d="M0 0 C1 3 1 3 -0.1796875 5.890625 C-1.30464888 8.11981115 -2.42964852 10.348978 -3.5546875 12.578125 C-5.04534008 16.1073457 -5.48389457 19.22773849 -6 23 C-6.66 23.33 -7.32 23.66 -8 24 C-8.144375 24.721875 -8.28875 25.44375 -8.4375 26.1875 C-9.10173377 29.50866887 -10.46237498 31.98388939 -12 35 C-14.08181785 39.84048289 -15.46249627 44.65828026 -16.52734375 49.8125 C-17.19982148 52.92479363 -18.09124377 55.94917551 -19 59 C-19.66 59 -20.32 59 -21 59 C-20.13063239 50.61152747 -17.7006962 42.95499559 -15 35 C-14.73912598 34.23123535 -14.47825195 33.4624707 -14.20947266 32.67041016 C-10.3021188 21.30888334 -5.63398811 10.60945812 0 0 Z " fill="#397DD8" transform="translate(26,130)"/>
<path d="M0 0 C0.99 0 1.98 0 3 0 C2.67 19.47 2.34 38.94 2 59 C1.01 59.495 1.01 59.495 0 60 C0 40.2 0 20.4 0 0 Z " fill="#276ED9" transform="translate(342,114)"/>
<path d="M0 0 C12.47485325 1.60965848 24.53843587 6.98268879 36 12 C36 12.33 36 12.66 36 13 C34.741875 13.04125 33.48375 13.0825 32.1875 13.125 C31.47980469 13.14820313 30.77210938 13.17140625 30.04296875 13.1953125 C28 13 28 13 25 11 C25 10.34 25 9.68 25 9 C20.71 8.67 16.42 8.34 12 8 C12 7.01 12 6.02 12 5 C8.7 5 5.4 5 2 5 C2 4.01 2 3.02 2 2 C1.01 1.67 0.02 1.34 -1 1 C-0.67 0.67 -0.34 0.34 0 0 Z " fill="#3A7ACA" transform="translate(310,7)"/>
<path d="M0 0 C1.35094757 0.0001133 1.35094757 0.0001133 2.72918701 0.00022888 C4.1746994 0.00797081 4.1746994 0.00797081 5.64941406 0.01586914 C6.64257629 0.01728409 7.63573853 0.01869904 8.65899658 0.02015686 C11.82770818 0.02574951 14.99634885 0.03830069 18.16503906 0.05102539 C20.31477762 0.05604134 22.4645173 0.06060408 24.61425781 0.06469727 C29.88120905 0.07571653 35.14811899 0.09244739 40.41503906 0.11352539 C40.41503906 0.44352539 40.41503906 0.77352539 40.41503906 1.11352539 C39.15957275 1.12287109 37.90410645 1.1322168 36.6105957 1.1418457 C31.91932671 1.18194323 27.22869993 1.24775617 22.5378418 1.32104492 C20.51383766 1.34914039 18.48972612 1.37041134 16.46557617 1.38452148 C13.54322785 1.40610987 10.62215529 1.45284051 7.70019531 1.50415039 C6.80607437 1.50537903 5.91195343 1.50660767 4.99073792 1.50787354 C-2.55726146 1.68089611 -8.49165058 3.6926738 -14.45996094 8.36352539 C-17.13565164 11.82618395 -18.24627648 14.95655786 -19.58496094 19.11352539 C-20.24496094 19.11352539 -20.90496094 19.11352539 -21.58496094 19.11352539 C-21.28461104 13.10652741 -18.52914858 9.40546043 -14.58496094 5.11352539 C-9.71494011 1.31490914 -6.08396754 -0.0170898 0 0 Z " fill="#306FCB" transform="translate(300.5849609375,174.886474609375)"/>
<path d="M0 0 C-0.0625 1.8125 -0.0625 1.8125 -1 4 C-6.18707644 6.9177305 -11.11535081 7.6130276 -17 8 C-17.33 8.99 -17.66 9.98 -18 11 C-21.92722404 12.96361202 -25.6570138 14.34197179 -30 15 C-27.91672869 12.75103221 -25.94435604 11.26638957 -23.234375 9.84375 C-22.50863281 9.46089844 -21.78289062 9.07804687 -21.03515625 8.68359375 C-20.28105469 8.29300781 -19.52695313 7.90242188 -18.75 7.5 C-18.01136719 7.10941406 -17.27273437 6.71882813 -16.51171875 6.31640625 C-4.453125 0 -4.453125 0 0 0 Z " fill="#347CD6" transform="translate(151,17)"/>
<path d="M0 0 C0.33 0.66 0.66 1.32 1 2 C1.99 2.33 2.98 2.66 4 3 C3.33333333 4.33333333 2.66666667 5.66666667 2 7 C1.525625 8.051875 1.05125 9.10375 0.5625 10.1875 C-1 13 -1 13 -4 14 C-3.67 12.68 -3.34 11.36 -3 10 C-4.91104638 11.91104638 -5.82338341 14.59560958 -7 17 C-7.66 17 -8.32 17 -9 17 C-7.57997238 13.24069983 -5.87350167 9.77000304 -3.9375 6.25 C-3.14666016 4.80367188 -3.14666016 4.80367188 -2.33984375 3.328125 C-1 1 -1 1 0 0 Z " fill="#2877E3" transform="translate(36,113)"/>
<path d="M0 0 C3.89332736 1.63148956 6.64719075 4.17627942 9.75 7 C10.25660156 7.45117188 10.76320313 7.90234375 11.28515625 8.3671875 C12.56545817 9.53360812 13.78791729 10.76283971 15 12 C15 12.66 15 13.32 15 14 C15.66 14 16.32 14 17 14 C17 14.66 17 15.32 17 16 C16.01 16 15.02 16 14 16 C14 15.01 14 14.02 14 13 C12.02 13 10.04 13 8 13 C7.6596875 11.329375 7.6596875 11.329375 7.3125 9.625 C6.879375 8.42875 6.44625 7.2325 6 6 C3.49552484 4.78130071 3.49552484 4.78130071 1 4 C0.1875 1.875 0.1875 1.875 0 0 Z " fill="#3777DD" transform="translate(406,59)"/>
<path d="M0 0 C6.50971499 -0.37556048 6.50971499 -0.37556048 8.76953125 1.35546875 C11.73699034 3.54338517 14.95337977 4.44420599 18.4375 5.5 C22.96410414 6.87979084 27.02478594 8.36517604 31 11 C29 12 29 12 26.86450195 11.42675781 C25.56452271 10.94480957 25.56452271 10.94480957 24.23828125 10.453125 C23.28373047 10.1025 22.32917969 9.751875 21.34570312 9.390625 C20.34474609 9.01421875 19.34378906 8.6378125 18.3125 8.25 C17.33087891 7.8890625 16.34925781 7.528125 15.33789062 7.15625 C10.16005639 5.23930533 5.0500569 3.23191326 0 1 C0 0.67 0 0.34 0 0 Z " fill="#397DD3" transform="translate(142,469)"/>
<path d="M0 0 C0.33 1.32 0.66 2.64 1 4 C2.32 4 3.64 4 5 4 C6.231394 7.69418201 5.64432764 10.2056261 5 14 C5.99 14 6.98 14 8 14 C7.34 15.32 6.68 16.64 6 18 C5.34 18 4.68 18 4 18 C3.13475247 15.56592995 2.28257135 13.12856816 1.4375 10.6875 C1.0672168 9.65206055 1.0672168 9.65206055 0.68945312 8.59570312 C-1.11328125 3.33984375 -1.11328125 3.33984375 0 0 Z " fill="#2C79E6" transform="translate(8,309)"/>
<path d="M0 0 C1.32 0.66 2.64 1.32 4 2 C2.0873614 3.62995302 0.17019858 5.25399515 -1.75 6.875 C-2.55824219 7.56529297 -2.55824219 7.56529297 -3.3828125 8.26953125 C-6.12143213 10.57397948 -8.6893305 12.60180463 -12 14 C-12 12.68 -12 11.36 -12 10 C-11.34 10 -10.68 10 -10 10 C-9.67 9.01 -9.34 8.02 -9 7 C-7.35 6.67 -5.7 6.34 -4 6 C-4.66 5.34 -5.32 4.68 -6 4 C-4.125 2.9375 -4.125 2.9375 -2 2 C-1.34 2.33 -0.68 2.66 0 3 C0 2.01 0 1.02 0 0 Z " fill="#3078D3" transform="translate(405,428)"/>
<path d="M0 0 C2.96430761 3.55716913 4.7721925 7.45050932 6.6875 11.625 C7.00783203 12.305625 7.32816406 12.98625 7.65820312 13.6875 C10 18.74058835 10 18.74058835 10 21 C8.68 20.67 7.36 20.34 6 20 C5.34 16.7 4.68 13.4 4 10 C3.01 9.67 2.02 9.34 1 9 C0.67 6.03 0.34 3.06 0 0 Z " fill="#3779D5" transform="translate(463,130)"/>
<path d="M0 0 C0 0.66 0 1.32 0 2 C-4.47841514 3.64921605 -8.70477379 4.48604717 -13.4375 5.0625 C-14.69433594 5.21847656 -15.95117188 5.37445312 -17.24609375 5.53515625 C-19.10427734 5.76525391 -19.10427734 5.76525391 -21 6 C-23.33502554 6.32267236 -25.66742254 6.65989516 -28 7 C-25.16102388 5.10734925 -23.49511953 4.48006007 -20.25390625 3.7109375 C-19.33416016 3.49179688 -18.41441406 3.27265625 -17.46679688 3.046875 C-16.50837891 2.82515625 -15.54996094 2.6034375 -14.5625 2.375 C-13.60794922 2.14554687 -12.65339844 1.91609375 -11.66992188 1.6796875 C-7.62101792 0.72767089 -4.18706719 0 0 0 Z " fill="#3E83CC" transform="translate(201,2)"/>
<path d="M0 0 C1.32 0.66 2.64 1.32 4 2 C-8.38539554 8.30483918 -8.38539554 8.30483918 -13 10 C-13.99 9.67 -14.98 9.34 -16 9 C-15.34 9 -14.68 9 -14 9 C-14 8.34 -14 7.68 -14 7 C-12.68 7 -11.36 7 -10 7 C-10 6.01 -10 5.02 -10 4 C-11.32 3.67 -12.64 3.34 -14 3 C-13.34 3 -12.68 3 -12 3 C-11.67 2.34 -11.34 1.68 -11 1 C-10.01 1.99 -9.02 2.98 -8 4 C-8.33 4.66 -8.66 5.32 -9 6 C-7.68 5.67 -6.36 5.34 -5 5 C-5 4.34 -5 3.68 -5 3 C-3.68 3 -2.36 3 -1 3 C-0.67 2.01 -0.34 1.02 0 0 Z " fill="#2C75D4" transform="translate(351,464)"/>
<path d="M0 0 C4.88049925 3.9419417 9.0580583 8.11950075 13 13 C12.67 13.66 12.34 14.32 12 15 C10.2925002 13.71937515 8.62626404 12.38232443 7 11 C7 10.34 7 9.68 7 9 C6.071875 8.7834375 6.071875 8.7834375 5.125 8.5625 C3 8 3 8 1 7 C1 6.01 1 5.02 1 4 C0.34 4 -0.32 4 -1 4 C-0.67 2.68 -0.34 1.36 0 0 Z " fill="#2C72E0" transform="translate(424,76)"/>
<path d="M0 0 C1.63507051 0.22855824 3.25979444 0.53323187 4.875 0.875 C6.20144531 1.14957031 6.20144531 1.14957031 7.5546875 1.4296875 C10 2 10 2 13 3 C13.33 3.66 13.66 4.32 14 5 C16.01669827 6.13350534 16.01669827 6.13350534 18 7 C15 8 15 8 12 8 C12 7.01 12 6.02 12 5 C8.7 5 5.4 5 2 5 C2 4.01 2 3.02 2 2 C1.01 1.67 0.02 1.34 -1 1 C-0.67 0.67 -0.34 0.34 0 0 Z " fill="#2A78DF" transform="translate(310,7)"/>
<path d="M0 0 C0.66 0.33 1.32 0.66 2 1 C1.59007812 1.54269531 1.18015625 2.08539063 0.7578125 2.64453125 C-0.05042969 3.71767578 -0.05042969 3.71767578 -0.875 4.8125 C-1.40867188 5.52019531 -1.94234375 6.22789062 -2.4921875 6.95703125 C-3.70814781 8.60456297 -4.86416141 10.29624211 -6 12 C-6.66 12 -7.32 12 -8 12 C-8.33 12.66 -8.66 13.32 -9 14 C-9 11 -9 11 -8 9 C-8.66 8.67 -9.32 8.34 -10 8 C-6.7 5.36 -3.4 2.72 0 0 Z " fill="#E3F4F9" transform="translate(239,124)"/>
<path d="M0 0 C0.66 0 1.32 0 2 0 C0.56006454 7.72329019 -2.05532446 14.7282249 -5 22 C-6.53271273 17.41201223 -5.02911182 15.22055258 -3 11 C-3.66 10.67 -4.32 10.34 -5 10 C-4.54625 9.278125 -4.0925 8.55625 -3.625 7.8125 C-2.14505642 5.25105919 -1.02782461 2.76722011 0 0 Z " fill="#2B76DA" transform="translate(479,316)"/>
<path d="M0 0 C0.99 0 1.98 0 3 0 C3 1.32 3 2.64 3 4 C4.32 3.67 5.64 3.34 7 3 C9.09230769 7.43076923 9.09230769 7.43076923 8.625 10.3125 C8.41875 10.869375 8.2125 11.42625 8 12 C4.74451247 8.97704729 2.31022942 5.79537691 0 2 C0 1.34 0 0.68 0 0 Z " fill="#2A76DF" transform="translate(36,375)"/>
<path d="M0 0 C0.33 0 0.66 0 1 0 C1.19865739 8.89543642 1.33447255 17.32910197 -1 26 C-1.33 26 -1.66 26 -2 26 C-2.26197285 17.10747704 -1.6039348 8.75003718 0 0 Z " fill="#337CD6" transform="translate(489,264)"/>
<path d="M0 0 C4.69159716 3.38772897 9.0299782 6.78185183 13 11 C10.69 11 8.38 11 6 11 C5.87625 10.360625 5.7525 9.72125 5.625 9.0625 C5.41875 8.381875 5.2125 7.70125 5 7 C4.34 6.67 3.68 6.34 3 6 C3 5.34 3 4.68 3 4 C2.34 4 1.68 4 1 4 C0.67 2.68 0.34 1.36 0 0 Z " fill="#2E76DE" transform="translate(391,46)"/>
<path d="M0 0 C2.475 0.99 2.475 0.99 5 2 C5 1.34 5 0.68 5 0 C5.66 0 6.32 0 7 0 C5.58192622 4.47238653 3.88695626 8.71146306 2 13 C1 10 1 10 1 7 C0.67 6.67 0.34 6.34 0 6 C-0.04080783 4.00041636 -0.04254356 1.99954746 0 0 Z " fill="#2B7BE2" transform="translate(466,339)"/>
<path d="M0 0 C0.66 0.33 1.32 0.66 2 1 C0.90653119 2.34212062 -0.2001575 3.67347975 -1.3125 5 C-1.92738281 5.7425 -2.54226562 6.485 -3.17578125 7.25 C-5 9 -5 9 -8 9 C-8 9.99 -8 10.98 -8 12 C-9.98 12.66 -11.96 13.32 -14 14 C-14 13.34 -14 12.68 -14 12 C-12.28048026 10.46148234 -10.49812503 8.99268241 -8.6875 7.5625 C-4.15615016 3.98901832 -4.15615016 3.98901832 0 0 Z " fill="#347AD9" transform="translate(91,51)"/>
<path d="M0 0 C3.63 0 7.26 0 11 0 C8.39350532 2.60649468 5.46865679 3.44024981 2.0625 4.625 C1.42892578 4.85445313 0.79535156 5.08390625 0.14257812 5.3203125 C-2.70958596 6.32801716 -4.95183307 7 -8 7 C-8 6.34 -8 5.68 -8 5 C-6.865625 4.731875 -5.73125 4.46375 -4.5625 4.1875 C-3.386875 3.795625 -2.21125 3.40375 -1 3 C-0.67 2.01 -0.34 1.02 0 0 Z " fill="#2B76D9" transform="translate(324,474)"/>
<path d="M0 0 C2.31 0 4.62 0 7 0 C0.84965831 7.48291572 0.84965831 7.48291572 -3 10 C-3 8.68 -3 7.36 -3 6 C-2.34 6 -1.68 6 -1 6 C-0.67 4.02 -0.34 2.04 0 0 Z " fill="#1C71DE" transform="translate(412,419)"/>
<path d="M0 0 C-2.12121657 2.33333823 -4.01594365 3.9148886 -7 5 C-9.25 4.625 -9.25 4.625 -11 4 C-10.34 3.67 -9.68 3.34 -9 3 C-9 2.01 -9 1.02 -9 0 C-5.93109813 -1.53445094 -3.29905734 -0.54984289 0 0 Z " fill="#1E77E6" transform="translate(210,2)"/>
<path d="M0 0 C2.25 0.125 2.25 0.125 5 1 C7.0625 3.75 7.0625 3.75 9 7 C10.31543279 8.68083079 11.64316249 10.3524116 13 12 C12.67 12.66 12.34 13.32 12 14 C7.41853326 9.61869443 3.27094033 5.45156722 0 0 Z " fill="#2B72D2" transform="translate(55,402)"/>
<path d="M0 0 C0.66 0 1.32 0 2 0 C3.98 3.63 5.96 7.26 8 11 C7.01 11.495 7.01 11.495 6 12 C6 11.34 6 10.68 6 10 C5.34 10 4.68 10 4 10 C4 9.34 4 8.68 4 8 C2.68 8 1.36 8 0 8 C0 7.34 0 6.68 0 6 C0.66 6 1.32 6 2 6 C2 5.34 2 4.68 2 4 C1.34 3.67 0.68 3.34 0 3 C0 2.01 0 1.02 0 0 Z " fill="#F0F5EB" transform="translate(29,367)"/>
<path d="M0 0 C1.93454826 6.91121058 -0.72199443 11.99286421 -4 18 C-5.72251754 13.9154674 -4.07280563 10.63026304 -2.5625 6.75 C-2.31951172 6.1003125 -2.07652344 5.450625 -1.82617188 4.78125 C-1.22714006 3.18383183 -0.61485679 1.59139406 0 0 Z " fill="#CBE6FB" transform="translate(214,153)"/>
<path d="M0 0 C0.33 0 0.66 0 1 0 C1.28125 2.26171875 1.28125 2.26171875 1 5 C-0.96875 7.01953125 -0.96875 7.01953125 -3.5 8.8125 C-4.3353125 9.41707031 -5.170625 10.02164063 -6.03125 10.64453125 C-6.6809375 11.09183594 -7.330625 11.53914063 -8 12 C-8.66 11.67 -9.32 11.34 -10 11 C-8.35742342 9.16365304 -6.71117305 7.3308593 -5.0625 5.5 C-4.59392578 4.97535156 -4.12535156 4.45070313 -3.64257812 3.91015625 C-2.44904592 2.5878256 -1.22665821 1.29166061 0 0 Z " fill="#2D73DC" transform="translate(63,78)"/>
<path d="M0 0 C0.33 0 0.66 0 1 0 C1.0544452 2.20805524 1.09299283 4.41650554 1.125 6.625 C1.14820313 7.85476562 1.17140625 9.08453125 1.1953125 10.3515625 C1.0030428 13.94316041 0.30258556 16.66661175 -1 20 C-1.33 20 -1.66 20 -2 20 C-2.26404456 13.13484138 -1.25841946 6.74153283 0 0 Z " fill="#4181D7" transform="translate(2,198)"/>
<path d="M0 0 C0 0.66 0 1.32 0 2 C-0.99 2 -1.98 2 -3 2 C-3.33 2.99 -3.66 3.98 -4 5 C-7.92722404 6.96361202 -11.6570138 8.34197179 -16 9 C-13.50506504 6.18368359 -10.73437182 4.59044019 -7.4375 2.8125 C-6.46683594 2.28269531 -5.49617187 1.75289062 -4.49609375 1.20703125 C-2 0 -2 0 0 0 Z " fill="#3B7DCD" transform="translate(137,23)"/>
<path d="M0 0 C6.29299361 -0.41953291 12.09333017 0.77222487 18 3 C18.33 3.66 18.66 4.32 19 5 C12.42465139 4.37968409 6.33307408 2.85102717 0 1 C0 0.67 0 0.34 0 0 Z " fill="#4380D4" transform="translate(174,481)"/>
<path d="M0 0 C0.66 0 1.32 0 2 0 C3 3 3 3 1.78515625 5.69921875 C1.21667969 6.68535156 0.64820313 7.67148438 0.0625 8.6875 C-0.50339844 9.68136719 -1.06929687 10.67523438 -1.65234375 11.69921875 C-2.31943359 12.83810547 -2.31943359 12.83810547 -3 14 C-4.37095624 10.30962722 -3.60010967 8.29116165 -2.0625 4.75 C-1.68222656 3.85796875 -1.30195313 2.9659375 -0.91015625 2.046875 C-0.60980469 1.37140625 -0.30945313 0.6959375 0 0 Z " fill="#2A76DE" transform="translate(15,155)"/>
<path d="M0 0 C-5 3 -10 6 -15 9 C-14.6875 7.125 -14.6875 7.125 -14 5 C-11 3 -11 3 -8 3 C-8 2.34 -8 1.68 -8 1 C-4.85571151 -0.9090323 -3.47925125 -1.04523725 0 0 Z " fill="#3577D6" transform="translate(248,120)"/>
<path d="M0 0 C1.2065625 0.0309375 1.2065625 0.0309375 2.4375 0.0625 C2.7675 1.3825 3.0975 2.7025 3.4375 4.0625 C4.7575 4.3925 6.0775 4.7225 7.4375 5.0625 C7.4375 5.7225 7.4375 6.3825 7.4375 7.0625 C2.92947399 5.80444623 -0.0537812 4.15842835 -3.5625 1.0625 C-2.5625 0.0625 -2.5625 0.0625 0 0 Z " fill="#2977DA" transform="translate(130.5625,459.9375)"/>
<path d="M0 0 C1.65 0.33 3.3 0.66 5 1 C4.06725891 2.12894876 3.12859878 3.25300876 2.1875 4.375 C1.66542969 5.00148438 1.14335937 5.62796875 0.60546875 6.2734375 C-1 8 -1 8 -4 10 C-3.42415568 7.61435923 -2.77772405 5.33317216 -2 3 C-1.34 3 -0.68 3 0 3 C0 2.01 0 1.02 0 0 Z " fill="#2472DC" transform="translate(423,409)"/>
<path d="M0 0 C0.66 0.33 1.32 0.66 2 1 C0.75 3.5 0.75 3.5 -1 6 C-2.32 6 -3.64 6 -5 6 C-5.33 6.99 -5.66 7.98 -6 9 C-6.99 8.67 -7.98 8.34 -9 8 C-6.14723863 5.06799526 -3.34920216 2.35684596 0 0 Z " fill="#3079DF" transform="translate(102,43)"/>
<path d="M0 0 C1.32 0.33 2.64 0.66 4 1 C1.69 4.96 -0.62 8.92 -3 13 C-4.61363928 9.77272143 -3.08456242 7.31076949 -2 4 C-1.37530495 2.64649406 -0.7283669 1.30065517 0 0 Z " fill="#3078DA" transform="translate(458,362)"/>
<path d="M0 0 C3.33370932 3.65120544 4.97807612 8.21633909 6 13 C5.67 13.99 5.34 14.98 5 16 C1.45215029 10.62100206 0.29112169 6.41923331 0 0 Z " fill="#3B7DD6" transform="translate(473,152)"/>
<path d="M0 0 C0.33 0.99 0.66 1.98 1 3 C0.54625 3.40992188 0.0925 3.81984375 -0.375 4.2421875 C-2.5943133 6.64288698 -3.63288658 9.28981697 -4.9375 12.2578125 C-6 14 -6 14 -9 15 C-7.00032606 9.33425718 -3.63809789 4.72952725 0 0 Z " fill="#D5F0FE" transform="translate(224,138)"/>
<path d="M0 0 C-4.95 1.485 -4.95 1.485 -10 3 C-10 3.66 -10 4.32 -10 5 C-12.31 5 -14.62 5 -17 5 C-14.65117776 2.65117776 -12.72876333 1.96496976 -9.625 0.8125 C-8.66851562 0.44769531 -7.71203125 0.08289063 -6.7265625 -0.29296875 C-4 -1 -4 -1 0 0 Z " fill="#C1E4FB" transform="translate(263,116)"/>
<path d="M0 0 C4.21814817 3.9700218 7.61227103 8.30840284 11 13 C10.01 13.495 10.01 13.495 9 14 C8.51789063 13.36191406 8.03578125 12.72382812 7.5390625 12.06640625 C6.90742188 11.24011719 6.27578125 10.41382812 5.625 9.5625 C4.99851562 8.73878906 4.37203125 7.91507812 3.7265625 7.06640625 C2.16246096 4.91471908 2.16246096 4.91471908 0 4 C0 2.68 0 1.36 0 0 Z " fill="#367AD2" transform="translate(437,91)"/>
<path d="M0 0 C2.31 0.33 4.62 0.66 7 1 C7.33 1.99 7.66 2.98 8 4 C7.34 4 6.68 4 6 4 C6 4.66 6 5.32 6 6 C3.37812506 4.95125002 2.20628639 4.35068687 0.75 1.875 C0.5025 1.25625 0.255 0.6375 0 0 Z " fill="#1A74E9" transform="translate(398,56)"/>
<path d="M0 0 C9.59453303 4.03872437 9.59453303 4.03872437 13 7 C9.14394242 7.35870303 7.47467396 7.33442938 4.25 5.0625 C3.5075 4.381875 2.765 3.70125 2 3 C1.34 2.67 0.68 2.34 0 2 C0 1.34 0 0.68 0 0 Z " fill="#2D77CE" transform="translate(347,20)"/>
<path d="M0 0 C5.50808397 0.59015185 10.64878069 1.56663769 16 3 C11.98055557 4.10355282 8.14776759 4.65446333 4 4 C1.5 2 1.5 2 0 0 Z " fill="#3379CC" transform="translate(293,3)"/>
<path d="M0 0 C0.66 0.33 1.32 0.66 2 1 C1.01 2.485 1.01 2.485 0 4 C-1.32 4 -2.64 4 -4 4 C-4 4.66 -4 5.32 -4 6 C-5.875 6.625 -5.875 6.625 -8 7 C-8.66 6.34 -9.32 5.68 -10 5 C-8.38007835 4.13624104 -6.75388139 3.28424146 -5.125 2.4375 C-4.22007812 1.96183594 -3.31515625 1.48617188 -2.3828125 0.99609375 C-1.20332031 0.50302734 -1.20332031 0.50302734 0 0 Z " fill="#DFEAEB" transform="translate(363,461)"/>
<path d="M0 0 C0.66 0.33 1.32 0.66 2 1 C0.02 4.63 -1.96 8.26 -4 12 C-4.33 12 -4.66 12 -5 12 C-5 10.35 -5 8.7 -5 7 C-4.34 7 -3.68 7 -3 7 C-3.33 6.01 -3.66 5.02 -4 4 C-2.68 3.34 -1.36 2.68 0 2 C0 1.34 0 0.68 0 0 Z " fill="#2976D9" transform="translate(218,143)"/>
<path d="M0 0 C2.31 0.33 4.62 0.66 7 1 C3.8745041 3.64465038 0.91211733 4.84414715 -3 6 C-2.67 4.68 -2.34 3.36 -2 2 C-1.34 2 -0.68 2 0 2 C0 1.34 0 0.68 0 0 Z " fill="#2F74DE" transform="translate(362,457)"/>
<path d="M0 0 C0.33 0 0.66 0 1 0 C1.08333357 4.8333472 0.95261487 9.23692563 0 14 C-0.66 13.67 -1.32 13.34 -2 13 C-1.85851011 11.3954444 -1.71164314 9.79136233 -1.5625 8.1875 C-1.48128906 7.29417969 -1.40007812 6.40085937 -1.31640625 5.48046875 C-1 3 -1 3 0 0 Z " fill="#2D74DA" transform="translate(334,307)"/>
<path d="M0 0 C0.66 0 1.32 0 2 0 C2.99 2.97 3.98 5.94 5 9 C3.68 8.67 2.36 8.34 1 8 C0.67 5.36 0.34 2.72 0 0 Z " fill="#2F77DC" transform="translate(468,142)"/>
<path d="M0 0 C2.92879371 0.62759865 5.36095629 1.58622659 8 3 C8 3.66 8 4.32 8 5 C8.66 5 9.32 5 10 5 C10 5.66 10 6.32 10 7 C9.01 7 8.02 7 7 7 C7 6.01 7 5.02 7 4 C5.02 4 3.04 4 1 4 C0.67 2.68 0.34 1.36 0 0 Z " fill="#3075EB" transform="translate(413,68)"/>
<path d="M0 0 C1.32 0.66 2.64 1.32 4 2 C3.75 4.375 3.75 4.375 3 7 C1.125 8.375 1.125 8.375 -1 9 C-1.99 8.67 -2.98 8.34 -4 8 C-3.34 8 -2.68 8 -2 8 C-2 7.34 -2 6.68 -2 6 C-0.68 6 0.64 6 2 6 C2 5.01 2 4.02 2 3 C0.68 2.67 -0.64 2.34 -2 2 C-1.34 2 -0.68 2 0 2 C0 1.34 0 0.68 0 0 Z " fill="#2074DE" transform="translate(339,465)"/>
<path d="M0 0 C1.66666667 1.66666667 3.33333333 3.33333333 5 5 C5.66 5 6.32 5 7 5 C7 7.31 7 9.62 7 12 C3.71534104 9.20803989 1.98678042 5.76803183 0 2 C0 1.34 0 0.68 0 0 Z " fill="#2A72D0" transform="translate(29,363)"/>
<path d="M0 0 C0.33 0 0.66 0 1 0 C1 2.64 1 5.28 1 8 C0.34 8 -0.32 8 -1 8 C-1.66 9.32 -2.32 10.64 -3 12 C-4 10 -4 10 -3.22265625 7.6171875 C-2.83980469 6.71226562 -2.45695312 5.80734375 -2.0625 4.875 C-1.68222656 3.96492188 -1.30195313 3.05484375 -0.91015625 2.1171875 C-0.60980469 1.41851562 -0.30945313 0.71984375 0 0 Z " fill="#E3EEF0" transform="translate(478,325)"/>
<path d="M0 0 C0 2 0 2 -1.5625 3.6875 C-4.97178007 5.52326619 -7.30221767 4.78222319 -11 4 C-8.07317918 1.07317918 -4.14037627 0 0 0 Z " fill="#1E73E2" transform="translate(182,7)"/>
<path d="M0 0 C0.66 0.33 1.32 0.66 2 1 C0.85760183 2.33627775 -0.28901055 3.66895388 -1.4375 5 C-2.07558594 5.7425 -2.71367187 6.485 -3.37109375 7.25 C-4.17740234 8.11625 -4.17740234 8.11625 -5 9 C-5.33 9 -5.66 9 -6 9 C-5.67 6.69 -5.34 4.38 -5 2 C-4.360625 1.855625 -3.72125 1.71125 -3.0625 1.5625 C-1.02454854 1.18992819 -1.02454854 1.18992819 0 0 Z " fill="#2E74D5" transform="translate(434,401)"/>
<path d="M0 0 C-3.23452341 1.74166645 -6.43496376 3.08977798 -10 4 C-10.99 3.34 -11.98 2.68 -13 2 C-8.50343896 -0.24828052 -4.92127034 -0.16682272 0 0 Z " fill="#E0F5FD" transform="translate(273,114)"/>
<path d="M0 0 C3.375 0.625 3.375 0.625 7 2 C8.4375 5.125 8.4375 5.125 9 8 C7.68388323 7.04663979 6.37221039 6.08714226 5.0625 5.125 C4.33160156 4.59132813 3.60070312 4.05765625 2.84765625 3.5078125 C1 2 1 2 0 0 Z " fill="#3473D5" transform="translate(78,426)"/>
<path d="M0 0 C2 2 2 2 2.3125 4.5 C2.209375 5.325 2.10625 6.15 2 7 C1.01 7.66 0.02 8.32 -1 9 C-1.09765625 2.84765625 -1.09765625 2.84765625 -1 1 C-0.67 0.67 -0.34 0.34 0 0 Z " fill="#1E73E7" transform="translate(452,370)"/>
<path d="M0 0 C-0.99 1.485 -0.99 1.485 -2 3 C-3.9453125 3.29296875 -3.9453125 3.29296875 -6.125 3.1875 C-7.40375 3.125625 -8.6825 3.06375 -10 3 C-7.28464405 0.28464405 -3.67870689 -1.83935344 0 0 Z " fill="#E8F2EF" transform="translate(335,476)"/>
<path d="M0 0 C3.48539917 0.64544429 6.02819057 2.10134397 9 4 C6 5 6 5 3.375 4.25 C1 3 1 3 0 0 Z " fill="#3A7FCF" transform="translate(360,27)"/>
<path d="M0 0 C1.32 0.66 2.64 1.32 4 2 C-1.41538462 5.07692308 -1.41538462 5.07692308 -4.375 4.6875 C-4.91125 4.460625 -5.4475 4.23375 -6 4 C-4.125 2.9375 -4.125 2.9375 -2 2 C-1.34 2.33 -0.68 2.66 0 3 C0 2.01 0 1.02 0 0 Z " fill="#2576E2" transform="translate(405,428)"/>
<path d="M0 0 C1.65 0 3.3 0 5 0 C2.25 4.875 2.25 4.875 0 6 C0 4.02 0 2.04 0 0 Z " fill="#F0F5EF" transform="translate(45,93)"/>
<path d="M0 0 C0.66 0.33 1.32 0.66 2 1 C1.67 1.99 1.34 2.98 1 4 C-2.5625 5.6875 -2.5625 5.6875 -6 7 C-6.33 6.34 -6.66 5.68 -7 5 C-5.68 4.67 -4.36 4.34 -3 4 C-3 3.34 -3 2.68 -3 2 C-2.01 2 -1.02 2 0 2 C0 1.34 0 0.68 0 0 Z " fill="#2375EF" transform="translate(121,32)"/>
<path d="M0 0 C6.75 0.75 6.75 0.75 9 3 C6.36 3 3.72 3 1 3 C0.67 2.01 0.34 1.02 0 0 Z " fill="#2E76D7" transform="translate(337,17)"/>
<path d="M0 0 C0.99 0.66 1.98 1.32 3 2 C0.03 4.475 0.03 4.475 -3 7 C-3 5.68 -3 4.36 -3 3 C-2.34 3 -1.68 3 -1 3 C-0.67 2.01 -0.34 1.02 0 0 Z " fill="#2C73DB" transform="translate(412,422)"/>
<path d="M0 0 C2.92824652 0.97608217 4.61426621 2.10786631 7 4 C6.67 4.99 6.34 5.98 6 7 C5.01 6.34 4.02 5.68 3 5 C3 4.34 3 3.68 3 3 C2.34 3 1.68 3 1 3 C0.67 2.01 0.34 1.02 0 0 Z " fill="#3881E4" transform="translate(68,416)"/>
<path d="M0 0 C0.66 0 1.32 0 2 0 C1.30058404 3.14737182 0.23921302 6.02588876 -1 9 C-1.33 9 -1.66 9 -2 9 C-2 6.69 -2 4.38 -2 2 C-1.34 2 -0.68 2 0 2 C0 1.34 0 0.68 0 0 Z " fill="#F2F6F0" transform="translate(23,131)"/>
<path d="M0 0 C0.33 0.66 0.66 1.32 1 2 C1.66 2 2.32 2 3 2 C3.33 3.65 3.66 5.3 4 7 C3.01 7.495 3.01 7.495 2 8 C0.4375 5.6875 0.4375 5.6875 -1 3 C-0.67 2.01 -0.34 1.02 0 0 Z " fill="#EEEFEC" transform="translate(458,117)"/>
<path d="M0 0 C0.66 0.33 1.32 0.66 2 1 C2 1.66 2 2.32 2 3 C1.01 3.495 1.01 3.495 0 4 C-0.33 4.99 -0.66 5.98 -1 7 C-2.32 7.33 -3.64 7.66 -5 8 C-3.35 5.36 -1.7 2.72 0 0 Z " fill="#3075DE" transform="translate(42,104)"/>
<path d="M0 0 C0.33 0 0.66 0 1 0 C1 1.65 1 3.3 1 5 C0.34 5 -0.32 5 -1 5 C-1 5.66 -1 6.32 -1 7 C-2.32 7.33 -3.64 7.66 -5 8 C-4.19185349 6.66402348 -3.37836819 5.331275 -2.5625 4 C-2.11003906 3.2575 -1.65757812 2.515 -1.19140625 1.75 C-0.79824219 1.1725 -0.40507812 0.595 0 0 Z " fill="#DEEEEA" transform="translate(456,372)"/>
</svg>
